<?xml version="1.0" encoding="UTF-8"?>
<svg version="1.1" xmlns="http://www.w3.org/2000/svg" width="434" height="476">
<path d="M0 0 C3.79637756 4.40606071 3.18167119 9.23056108 3.234375 14.86328125 C3.26789063 15.97316406 3.30140625 17.08304688 3.3359375 18.2265625 C3.53474339 26.38754446 3.53474339 26.38754446 2.359375 28.73828125 C14.239375 28.73828125 26.119375 28.73828125 38.359375 28.73828125 C38.16212298 20.73509804 38.16212298 20.73509804 37.90893555 12.73364258 C37.79416017 3.51829067 37.79416017 3.51829067 40.69140625 0.4765625 C43.99418743 -1.67532275 45.4946749 -2.0668646 49.359375 -1.26171875 C51.91279822 0.40193181 52.94470553 1.13566506 54.359375 3.73828125 C54.98368789 8.02710546 54.82806724 12.22854102 54.671875 16.55078125 C54.5171875 22.58359375 54.5171875 22.58359375 54.359375 28.73828125 C65.909375 28.73828125 77.459375 28.73828125 89.359375 28.73828125 C89.49018127 20.36208252 89.49018127 20.36208252 89.56713867 11.98535156 C89.59525635 10.93959961 89.62337402 9.89384766 89.65234375 8.81640625 C89.6680542 7.7480957 89.68376465 6.67978516 89.69995117 5.57910156 C90.57764924 1.79794838 92.12324831 0.76000111 95.359375 -1.26171875 C99.10660842 -1.88625765 100.81805266 -1.550424 104.171875 0.23828125 C107.09113006 3.57457275 107.26428331 6.48109962 107.359375 10.73828125 C107.38644531 11.55039063 107.41351563 12.3625 107.44140625 13.19921875 C107.5308267 18.48315459 107.05789902 23.50489496 106.359375 28.73828125 C107.06956787 28.7225708 107.77976074 28.70686035 108.51147461 28.69067383 C111.7731916 28.62776985 115.03478037 28.58911588 118.296875 28.55078125 C119.41384766 28.52564453 120.53082031 28.50050781 121.68164062 28.47460938 C132.50403228 28.37939772 139.78043809 30.39649685 148.12109375 37.4140625 C154.02193681 43.54146498 156.50148539 51.02152733 156.45703125 59.37890625 C156.45380859 60.44882813 156.45058594 61.51875 156.44726562 62.62109375 C156.43888672 63.73226562 156.43050781 64.8434375 156.421875 65.98828125 C156.41736328 67.11492187 156.41285156 68.2415625 156.40820312 69.40234375 C156.39642897 72.18104342 156.3799834 74.95963534 156.359375 77.73828125 C157.0299292 77.7225708 157.7004834 77.70686035 158.39135742 77.69067383 C161.4431101 77.62813467 164.49472768 77.58923062 167.546875 77.55078125 C168.60197266 77.52564453 169.65707031 77.50050781 170.74414062 77.47460938 C171.76572266 77.46494141 172.78730469 77.45527344 173.83984375 77.4453125 C175.24592896 77.42174683 175.24592896 77.42174683 176.68041992 77.39770508 C179.89193853 77.80598617 181.75316131 78.84997427 184.359375 80.73828125 C185.78599719 83.59152562 185.66971368 85.57282674 185.359375 88.73828125 C184.13671875 91.38671875 184.13671875 91.38671875 181.359375 93.73828125 C177.11585566 94.52248145 172.91584307 94.52808396 168.609375 94.55078125 C164.566875 94.61265625 160.524375 94.67453125 156.359375 94.73828125 C156.359375 106.61828125 156.359375 118.49828125 156.359375 130.73828125 C159.659375 130.40828125 162.959375 130.07828125 166.359375 129.73828125 C168.46149924 129.6136399 170.56633639 129.52247132 172.671875 129.48828125 C174.12013672 129.44960938 174.12013672 129.44960938 175.59765625 129.41015625 C178.89293869 129.80167496 180.70068908 130.77973121 183.359375 132.73828125 C185.72023622 136.27957309 185.93207078 137.56578343 185.359375 141.73828125 C183.75317081 144.58946903 182.98212807 145.95483702 180.359375 147.73828125 C176.39344615 148.48394376 172.56419181 148.30323458 168.546875 148.11328125 C164.855 147.98953125 161.163125 147.86578125 157.359375 147.73828125 C157.029375 159.28828125 156.699375 170.83828125 156.359375 182.73828125 C164.40759097 182.54084276 164.40759097 182.54084276 172.45410156 182.2878418 C180.69282321 182.18548512 180.69282321 182.18548512 184.12890625 185.03515625 C185.72618565 188.5441002 185.84500265 190.92263544 185.359375 194.73828125 C183.59922369 197.92331695 182.86046584 198.57125097 179.359375 199.73828125 C177.58623649 199.82037917 175.81016725 199.84574419 174.03515625 199.8359375 C173.00712891 199.83271484 171.97910156 199.82949219 170.91992188 199.82617188 C169.84806641 199.81779297 168.77621094 199.80941406 167.671875 199.80078125 C166.58841797 199.79626953 165.50496094 199.79175781 164.38867188 199.78710938 C161.71218415 199.77531868 159.03580723 199.75886188 156.359375 199.73828125 C156.36984863 200.38788818 156.38032227 201.03749512 156.39111328 201.70678711 C156.43310462 204.69641126 156.45883667 207.68597304 156.484375 210.67578125 C156.50113281 211.69736328 156.51789063 212.71894531 156.53515625 213.77148438 C156.57556315 220.09516477 155.97947513 225.62144652 154.359375 231.73828125 C153.699375 231.73828125 153.039375 231.73828125 152.359375 231.73828125 C152.0190625 232.82109375 152.0190625 232.82109375 151.671875 233.92578125 C150.09171424 237.31184002 148.08746175 239.20505784 145.359375 241.73828125 C144.45638672 242.75148438 144.45638672 242.75148438 143.53515625 243.78515625 C140.99695092 246.06361705 139.22497547 246.6504266 135.921875 247.42578125 C134.99503906 247.65652344 134.06820313 247.88726562 133.11328125 248.125 C127.55853895 249.03248652 121.97223895 249.36751653 116.359375 249.73828125 C116.33466804 255.09513003 116.31651169 260.45194569 116.30444336 265.80883789 C116.2994126 267.63143491 116.29258731 269.4540279 116.28393555 271.27661133 C116.27181503 273.89535519 116.26613414 276.51404572 116.26171875 279.1328125 C116.25655746 279.94853226 116.25139618 280.76425201 116.24607849 281.60469055 C116.2457504 284.90842054 116.30711879 287.58151263 117.359375 290.73828125 C119.75583244 291.93650997 121.31599527 291.8945544 123.99267578 291.94360352 C124.95352081 291.96354874 125.91436584 291.98349396 126.90432739 292.00404358 C128.46375565 292.02911232 128.46375565 292.02911232 130.0546875 292.0546875 C131.64855789 292.08585915 131.64855789 292.08585915 133.27462769 292.11766052 C136.67780938 292.18318386 140.08106989 292.24205398 143.484375 292.30078125 C145.78776866 292.34396382 148.09115426 292.38757802 150.39453125 292.43164062 C156.04939521 292.53886807 161.70433803 292.64062927 167.359375 292.73828125 C167.81751587 291.56567749 167.81751587 291.56567749 168.28491211 290.36938477 C170.71438776 284.42017797 174.05465971 279.97745668 179.984375 277.30078125 C186.65143352 274.69244081 193.82109598 273.0953653 200.765625 275.609375 C207.72405499 279.24348655 213.8866055 284.59981061 217.359375 291.73828125 C219.74781732 299.57640886 219.04752864 308.43603328 215.359375 315.73828125 C213.109375 318.42578125 213.109375 318.42578125 210.359375 320.73828125 C209.55113281 321.51171875 209.55113281 321.51171875 208.7265625 322.30078125 C203.87153483 326.82923755 199.66340682 328.43235238 192.984375 329.05078125 C185.83602143 328.43454387 178.39824314 326.16189879 173.5390625 320.6875 C168.35913521 314.28074782 168.35913521 314.28074782 167.359375 309.73828125 C166.76326416 309.74272247 166.16715332 309.7471637 165.55297852 309.7517395 C159.32326668 309.79614214 153.09360015 309.82621777 146.86376953 309.84814453 C144.54181084 309.85817389 142.21986468 309.87180065 139.89794922 309.88916016 C136.55172623 309.91354326 133.20567092 309.92479529 129.859375 309.93359375 C128.8288501 309.94391632 127.7983252 309.95423889 126.73657227 309.96487427 C113.28449875 309.96694696 113.28449875 309.96694696 107.734375 305.73828125 C98.3020579 293.82377544 98.18748043 284.51791155 98.234375 269.67578125 C98.23050781 268.44794922 98.22664062 267.22011719 98.22265625 265.95507812 C98.22458984 264.15973633 98.22458984 264.15973633 98.2265625 262.328125 C98.22769043 261.25425537 98.22881836 260.18038574 98.22998047 259.07397461 C98.37716935 255.27955627 98.88838137 251.50623031 99.359375 247.73828125 C84.509375 247.73828125 69.659375 247.73828125 54.359375 247.73828125 C54.524375 250.97640625 54.689375 254.21453125 54.859375 257.55078125 C55.28279416 266.73897706 55.46915218 275.91552955 55.484375 285.11328125 C55.49114258 286.79514526 55.49114258 286.79514526 55.49804688 288.51098633 C55.4869446 294.67043869 55.16933946 300.63140636 54.359375 306.73828125 C55.28858765 306.94868042 55.28858765 306.94868042 56.23657227 307.16333008 C62.44254161 308.84418779 67.84591335 314.57142589 71.359375 319.73828125 C74.14161976 326.82035881 74.06461485 334.35442713 72.359375 341.73828125 C68.83690139 347.99681576 63.50432426 353.9986586 56.78125 356.8203125 C47.76137936 359.28627129 40.76133022 359.25044239 32.359375 354.73828125 C26.09956222 350.42116899 21.34550527 345.24218617 19.69140625 337.6875 C18.67857361 329.1536329 19.94224772 322.84433351 24.71875 315.70703125 C28.02793738 311.50827737 31.55807451 309.04659879 36.359375 306.73828125 C37.019375 306.73828125 37.679375 306.73828125 38.359375 306.73828125 C38.25326904 305.88713745 38.25326904 305.88713745 38.14501953 305.01879883 C37.32673544 297.80740062 37.21013262 290.6782932 37.234375 283.42578125 C37.23050781 282.31138672 37.22664062 281.19699219 37.22265625 280.04882812 C37.23477556 269.23234613 37.8430973 258.58011292 38.359375 247.73828125 C23.509375 247.73828125 8.659375 247.73828125 -6.640625 247.73828125 C-6.145625 252.19328125 -6.145625 252.19328125 -5.640625 256.73828125 C-5.52223234 259.42440659 -5.43186333 262.08735732 -5.40234375 264.7734375 C-5.394272 265.49639511 -5.38620026 266.21935272 -5.37788391 266.96421814 C-5.36418498 268.47750548 -5.35340084 269.99082188 -5.34545898 271.50415039 C-5.33388878 273.03712151 -5.31335803 274.57005079 -5.28393555 276.1027832 C-5.06829185 287.38251456 -5.82265162 294.91153711 -13.640625 303.73828125 C-14.08728516 304.24391602 -14.53394531 304.74955078 -14.99414062 305.27050781 C-22.79616197 312.22569054 -37.41733203 310.12034072 -47.10449219 310.01953125 C-50.1609303 309.98807225 -53.21685266 309.97852114 -56.2734375 309.97265625 C-58.21875632 309.96349644 -60.1640699 309.95312396 -62.109375 309.94140625 C-63.02182983 309.93715637 -63.93428467 309.93290649 -64.87438965 309.92852783 C-66.14216248 309.91411652 -66.14216248 309.91411652 -67.43554688 309.89941406 C-68.54826965 309.88917206 -68.54826965 309.88917206 -69.68347168 309.87872314 C-71.640625 309.73828125 -71.640625 309.73828125 -74.640625 308.73828125 C-74.9190625 309.94484375 -74.9190625 309.94484375 -75.203125 311.17578125 C-77.555328 317.00515391 -80.63013453 322.01208259 -86.1953125 325.203125 C-93.66833411 328.17751462 -101.09042047 329.09827482 -108.828125 326.61328125 C-116.68269889 323.19274101 -121.23685149 317.47413014 -124.640625 309.73828125 C-126.7529981 303.08972234 -126.87785342 295.26137006 -123.703125 288.98828125 C-119.23679108 282.06860898 -113.03607738 276.222474 -104.94921875 274.078125 C-96.7393155 272.86956056 -88.41480486 274.95765838 -81.640625 279.73828125 C-80.82799759 281.59941108 -80.07359745 283.48664167 -79.3671875 285.390625 C-77.4210005 288.60396712 -75.99737031 290.40263135 -72.27267456 291.32409668 C-64.76899872 292.15920084 -57.22867276 291.73407964 -49.703125 291.42578125 C-47.37446365 291.37057975 -45.04567763 291.32039394 -42.71679688 291.27539062 C-37.02201343 291.15441662 -31.33189426 290.97062585 -25.640625 290.73828125 C-24.05530948 287.92747851 -23.39264896 285.92659133 -23.41357422 282.70410156 C-23.41372528 281.92359436 -23.41387634 281.14308716 -23.41403198 280.33892822 C-23.42435455 279.50649597 -23.43467712 278.67406372 -23.4453125 277.81640625 C-23.44955734 276.52642731 -23.44955734 276.52642731 -23.45388794 275.21038818 C-23.4650635 272.46954304 -23.49016321 269.72902727 -23.515625 266.98828125 C-23.5256582 265.12760889 -23.53478345 263.2669314 -23.54296875 261.40625 C-23.56499424 256.85013393 -23.59950603 252.29426339 -23.640625 247.73828125 C-25.39221924 247.76656006 -25.39221924 247.76656006 -27.17919922 247.79541016 C-28.72623274 247.81065764 -30.27327085 247.82544457 -31.8203125 247.83984375 C-32.58819092 247.85345947 -33.35606934 247.8670752 -34.1472168 247.88110352 C-42.8038289 247.94150929 -48.73186648 245.23864587 -55.07421875 239.3671875 C-63.44326572 230.66421347 -63.94728367 221.92033096 -63.765625 210.23828125 C-63.75660156 209.1296875 -63.74757812 208.02109375 -63.73828125 206.87890625 C-63.71488667 204.16513533 -63.68210675 201.4518258 -63.640625 198.73828125 C-64.21852783 198.80756836 -64.79643066 198.87685547 -65.3918457 198.94824219 C-84.41921069 201.15875984 -84.41921069 201.15875984 -90.640625 196.73828125 C-93.14094154 192.98780643 -93.17666054 191.17971859 -92.640625 186.73828125 C-90.8828125 184.03125 -90.8828125 184.03125 -87.640625 181.73828125 C-83.51615039 181.12068858 -79.48654059 181.26901173 -75.328125 181.42578125 C-71.47125 181.52890625 -67.614375 181.63203125 -63.640625 181.73828125 C-63.640625 170.18828125 -63.640625 158.63828125 -63.640625 146.73828125 C-71.31474501 146.93549661 -71.31474501 146.93549661 -78.98706055 147.1887207 C-86.86460165 147.29097503 -86.86460165 147.29097503 -90.87109375 144.4375 C-93.21710325 140.85892922 -93.39072091 138.93881833 -92.640625 134.73828125 C-89.6129289 130.75902352 -87.49743729 129.40626689 -82.640625 128.73828125 C-80.49632771 128.64703456 -78.34935687 128.60822534 -76.203125 128.61328125 C-75.11128906 128.61070312 -74.01945312 128.608125 -72.89453125 128.60546875 C-69.640625 128.73828125 -69.640625 128.73828125 -63.640625 129.73828125 C-63.640625 118.18828125 -63.640625 106.63828125 -63.640625 94.73828125 C-71.68771135 94.60748171 -71.68771135 94.60748171 -79.73535156 94.53051758 C-87.98240096 94.29981701 -87.98240096 94.29981701 -91.40625 91.37890625 C-92.91656087 88.14798805 -93.24036492 86.26175327 -92.640625 82.73828125 C-90.7735259 80.43552569 -89.28414759 79.06004254 -86.640625 77.73828125 C-84.9001833 77.65378497 -83.15652778 77.63105101 -81.4140625 77.640625 C-79.8671875 77.64545898 -79.8671875 77.64545898 -78.2890625 77.65039062 C-77.20882812 77.65876953 -76.12859375 77.66714844 -75.015625 77.67578125 C-73.38367188 77.68254883 -73.38367188 77.68254883 -71.71875 77.68945312 C-69.02598711 77.70126349 -66.33333312 77.71773347 -63.640625 77.73828125 C-63.65633545 77.06361816 -63.6720459 76.38895508 -63.68823242 75.69384766 C-63.75128579 72.58374701 -63.78983631 69.47378153 -63.828125 66.36328125 C-63.85326172 65.30238281 -63.87839844 64.24148437 -63.90429688 63.1484375 C-63.97686962 55.26219972 -63.60382679 47.37878631 -58.453125 41.05078125 C-57.525 40.28765625 -56.596875 39.52453125 -55.640625 38.73828125 C-55.05152344 38.16207031 -54.46242188 37.58585937 -53.85546875 36.9921875 C-53.20707031 36.37214844 -52.55867188 35.75210938 -51.890625 35.11328125 C-51.29765625 34.54351562 -50.7046875 33.97375 -50.09375 33.38671875 C-42.48276154 28.27232841 -34.47822884 28.3504904 -25.578125 28.55078125 C-23.85045898 28.57108398 -23.85045898 28.57108398 -22.08789062 28.59179688 C-19.27163528 28.626854 -16.45638735 28.67599269 -13.640625 28.73828125 C-13.74455566 27.54114502 -13.74455566 27.54114502 -13.85058594 26.31982422 C-13.94114258 25.25908691 -14.03169922 24.19834961 -14.125 23.10546875 C-14.21491211 22.05987793 -14.30482422 21.01428711 -14.39746094 19.93701172 C-15.51809754 5.19546482 -15.51809754 5.19546482 -11.640625 -0.26171875 C-7.3016834 -1.70803262 -4.1951328 -2.00447913 0 0 Z M-43.890625 50.11328125 C-46.9086015 54.640246 -46.76949007 59.14082755 -46.79452515 64.47383118 C-46.7989074 65.13807781 -46.80328965 65.80232444 -46.8078047 66.48669976 C-46.82112378 68.70508475 -46.82735588 70.92343008 -46.83349609 73.1418457 C-46.84140232 74.73549577 -46.84967159 76.32914408 -46.85827637 77.92279053 C-46.8844298 83.14903062 -46.89979436 88.37527846 -46.9140625 93.6015625 C-46.91942437 95.40331718 -46.92480188 97.20507181 -46.93019485 99.0068264 C-46.95181111 106.50191842 -46.97054775 113.99700833 -46.98181725 121.4921236 C-46.99805906 132.22201055 -47.0312568 142.95153561 -47.08821809 153.68128616 C-47.12693836 161.23304189 -47.14645223 168.78470089 -47.15173781 176.33655328 C-47.15538754 180.84397751 -47.16736906 185.35101515 -47.19984055 189.85833168 C-47.2299592 194.09955013 -47.2362197 198.34014878 -47.22445679 202.58145142 C-47.22423639 204.13423666 -47.23251359 205.68705101 -47.25011063 207.23973656 C-47.45065827 217.80212164 -47.45065827 217.80212164 -43.20214272 227.25049114 C-38.95806804 231.29418034 -35.5366631 232.11440712 -29.73976135 232.1259613 C-29.05776938 232.13134684 -28.37577741 232.13673238 -27.67311901 232.14228112 C-25.3946058 232.15655501 -23.11667402 232.14945871 -20.83813477 232.14233398 C-19.20182834 232.14803787 -17.5655259 232.15500221 -15.92922974 232.16313171 C-11.48912455 232.1810763 -7.04921684 232.1798923 -2.60908628 232.17418933 C1.09872329 232.17109933 4.80649482 232.17718783 8.51429898 232.18322808 C17.26192485 232.19727598 26.00945306 232.19570983 34.75708008 232.18432617 C43.77931251 232.17284456 52.80124771 232.1869207 61.82344097 232.21372265 C69.57221267 232.23587919 77.32089106 232.24251713 85.06969219 232.23664623 C89.69656781 232.23327535 94.32325289 232.23570042 98.95010185 232.25289726 C103.30127207 232.26836361 107.65200195 232.26441447 112.00315475 232.24559212 C113.59868218 232.24190535 115.19424221 232.24501731 116.78973961 232.25547791 C118.97084259 232.26868454 121.15048705 232.25714555 123.33152771 232.23948669 C124.55101829 232.23927741 125.77050886 232.23906813 127.0269537 232.2388525 C131.6342392 231.54678074 134.68467631 229.58799564 137.80267429 226.14414883 C141.47542069 219.27333045 140.91309974 211.76612973 140.86108398 204.19360352 C140.86487152 202.62083453 140.87037513 201.04806888 140.87745667 199.47531128 C140.89137317 195.22104121 140.88026791 190.96717732 140.86374545 186.71292996 C140.84985024 182.25018101 140.85636021 177.78745458 140.85987854 173.32469177 C140.86257742 165.8305714 140.84913382 158.33661148 140.82592773 150.8425293 C140.79932974 142.19352606 140.79756903 133.54479118 140.8093161 124.89576107 C140.82011783 116.55779645 140.81388741 108.21992835 140.79976082 99.88197136 C140.79402079 96.34191528 140.79406806 92.80193031 140.79882622 89.26187325 C140.80361957 85.08797843 140.7933973 80.91437517 140.77187157 76.74053574 C140.76633515 75.21400244 140.7658093 73.68744094 140.77082443 72.16090584 C140.94371525 60.58946348 140.94371525 60.58946348 137.359375 49.73828125 C132.82955647 45.31894609 130.02072497 44.61293711 123.81254578 44.59783936 C123.13241151 44.59486823 122.45227725 44.59189711 121.75153285 44.58883595 C119.4615402 44.58013106 117.17159971 44.5786392 114.8815918 44.57714844 C113.24410896 44.57252151 111.60662721 44.56749702 109.96914673 44.56210327 C105.51246042 44.54896471 101.05578918 44.54253142 96.59908652 44.53809261 C93.81602827 44.53516407 91.03297416 44.53105967 88.24991798 44.52658844 C79.54622437 44.51290932 70.84254019 44.50324485 62.13883656 44.49938655 C52.08466727 44.49490541 42.03063389 44.47735669 31.97650594 44.44838595 C24.20999455 44.42678226 16.44352144 44.41668296 8.67698032 44.41534543 C4.03613841 44.41429641 -0.6045758 44.40836804 -5.24538612 44.39052582 C-9.61120287 44.37406792 -13.97679562 44.37187849 -18.34263229 44.38066483 C-19.9450344 44.38143644 -21.54744843 44.37707608 -23.14982033 44.36720657 C-25.33776285 44.3545208 -27.52490802 44.36034484 -29.71284485 44.37078857 C-30.93715367 44.36932201 -32.1614625 44.36785545 -33.42287159 44.36634445 C-38.14927591 44.91266465 -40.66750845 46.71110267 -43.890625 50.11328125 Z M-107.640625 293.73828125 C-109.6822964 296.76785816 -110.69473148 298.62909834 -110.515625 302.30078125 C-109.22308903 305.90141718 -107.96231535 308.813098 -104.765625 311.05078125 C-102.10583593 311.91130124 -100.42867004 312.1365734 -97.640625 311.73828125 C-94.64292496 310.09248515 -92.33631378 308.61545406 -90.203125 305.92578125 C-89.32737152 302.52007325 -89.74925735 300.12547833 -90.640625 296.73828125 C-93.08372904 293.52734452 -94.75543831 292.0396214 -98.578125 290.73828125 C-102.48518219 290.73828125 -104.42537215 291.52332929 -107.640625 293.73828125 Z M184.359375 294.73828125 C182.20465533 297.36141824 182.24821416 299.46836191 182.484375 302.73828125 C182.93624505 305.46473311 183.39781583 306.79824894 184.921875 309.17578125 C188.33045904 311.36077102 191.3158169 312.06487633 195.359375 311.73828125 C198.8896011 310.03854276 200.76791583 308.71547466 202.796875 305.36328125 C203.51217986 302.02519188 203.38110519 300.00781787 202.359375 296.73828125 C199.7572858 293.29433966 198.05837066 291.95433445 193.921875 290.67578125 C189.47867566 290.75373212 187.69792029 291.86557949 184.359375 294.73828125 Z M37.40234375 327.6640625 C35.48330084 331.48058603 36.09646106 333.68366281 37.359375 337.73828125 C40.0658486 340.92236783 41.67911683 341.62696628 45.796875 342.30078125 C50.41150399 341.57215562 52.25884724 340.20791945 55.359375 336.73828125 C56.56173689 332.77755974 56.78653214 330.74996922 55.171875 326.92578125 C52.30294579 323.46328048 50.40195128 322.91204396 45.984375 322.17578125 C41.53482506 322.86622865 40.06364316 324.14658097 37.40234375 327.6640625 Z " fill="#0B0B0C" transform="translate(170.640625,114.26171875)"/>
<path d="M0 0 C1.67449219 0.45826172 1.67449219 0.45826172 3.3828125 0.92578125 C25.81207786 7.95089284 47.12783481 24.69743738 59 45 C64.30643872 55.25446519 68.17344797 65.82039369 71 77 C71.6391333 77.07516846 72.2782666 77.15033691 72.93676758 77.2277832 C75.89643196 77.58082945 78.8543976 77.94660549 81.8125 78.3125 C82.81732422 78.43044922 83.82214844 78.54839844 84.85742188 78.66992188 C95.50784192 80.0055051 104.91276806 82.43962284 114.375 87.5625 C115.18936523 87.99868652 116.00373047 88.43487305 116.84277344 88.88427734 C127.39427746 94.68406936 136.43713067 101.5514285 144 111 C144.49628906 111.51433594 144.99257813 112.02867188 145.50390625 112.55859375 C153.83378555 121.27995562 158.04956413 133.54098392 161 145 C161.32097656 146.22396484 161.32097656 146.22396484 161.6484375 147.47265625 C166.53015236 168.66212871 163.79567811 193.26234879 152.8203125 212.1796875 C146.63330744 221.76556228 139.79882897 229.69559952 131 237 C130.41089844 237.52464844 129.82179688 238.04929688 129.21484375 238.58984375 C125.26939039 242.07112612 122.27300223 244.0463878 116.9375 243.9375 C113.11924885 242.71890921 111.90944792 241.51338418 110 238 C110.09316805 233.7387875 110.34768805 231.68405196 113.328125 228.55859375 C114.29234375 227.85863281 115.2565625 227.15867188 116.25 226.4375 C120.51608677 223.19108513 123.74060602 220.21803927 127 216 C127.825 215.21625 128.65 214.4325 129.5 213.625 C142.85617713 199.60101402 146.57572957 180.33269979 146.28125 161.68359375 C145.8461758 151.08301078 142.34285306 141.10646502 137 132 C136.45085937 131.04996094 135.90171875 130.09992188 135.3359375 129.12109375 C132.05106261 123.68730291 129.04535799 119.81204826 124 116 C123.1646875 114.83984375 123.1646875 114.83984375 122.3125 113.65625 C119.34852819 110.25168778 116.13034412 108.4865878 112.1875 106.375 C111.50107422 105.9934375 110.81464844 105.611875 110.10742188 105.21875 C96.03245011 97.49549208 83.19158118 95.47645414 67.26391602 96.28637695 C59.77640823 96.52564284 59.77640823 96.52564284 55.85546875 93.87109375 C53.80287275 90.69497151 53.23685094 88.68126549 52.875 84.9375 C51.40539344 73.24625492 48.43325859 64.23821016 42.64453125 54.0546875 C41 51 41 51 41 49 C40.34 49 39.68 49 39 49 C37.94270093 47.56123223 36.95516019 46.0710102 36 44.5625 C28.00034861 32.82080794 17.05959165 25.8905716 4.0625 20.8125 C2.79889648 20.29913086 2.79889648 20.29913086 1.50976562 19.77539062 C-8.12602733 15.95519557 -16.75881213 14.60920872 -27.125 14.625 C-28.227229 14.62661133 -29.32945801 14.62822266 -30.46508789 14.62988281 C-39.23508054 14.76113353 -46.72417989 15.96483247 -55 19 C-55.89203125 19.30035156 -56.7840625 19.60070312 -57.703125 19.91015625 C-70.15206659 24.43170579 -83.90345193 32.36598334 -90.6875 44.125 C-91.120625 45.07375 -91.55375 46.0225 -92 47 C-92.66 47 -93.32 47 -94 47 C-94.09667969 47.53496094 -94.19335938 48.06992187 -94.29296875 48.62109375 C-95.21326212 51.71755044 -96.71865375 54.25364462 -98.3125 57.0625 C-101.13711871 62.18609262 -103.32437215 67.18220201 -105.078125 72.7578125 C-106.11934039 75.2902601 -106.73951119 76.44470642 -109 78 C-114.65469146 79.52478379 -118.18925413 78.43418035 -123.3125 76.0625 C-134.94680897 71.22906838 -147.60657547 71.08716241 -159.390625 75.7421875 C-166.53446109 79.18577316 -171.66014264 83.23762688 -176.58984375 89.4609375 C-177.05519531 89.96882813 -177.52054687 90.47671875 -178 91 C-178.66 91 -179.32 91 -180 91 C-180.41572266 92.06347656 -180.41572266 92.06347656 -180.83984375 93.1484375 C-181.6033602 95.0250941 -182.4073911 96.88585354 -183.25390625 98.7265625 C-188.01387603 109.26954033 -188.18106788 118.39923118 -187.7421875 129.8359375 C-188.03770205 133.46270695 -188.70571303 135.18925016 -191 138 C-194.61486116 139.97956683 -198.19177807 140.39467905 -202.25 140.875 C-213.08053486 142.45876775 -224.63153715 147.67184773 -232 156 C-232.33 156.99 -232.66 157.98 -233 159 C-233.99445996 160.00550952 -234.99508608 161.00493818 -236 162 C-243.26956369 173.08165196 -245.5162121 187.09476492 -243 200 C-240.72399535 208.45114076 -237.75742753 215.40681686 -232 222 C-230.88625 223.546875 -230.88625 223.546875 -229.75 225.125 C-226.0027003 229.0426315 -221.72104723 231.40085425 -217 234 C-210.09701493 237.80597015 -210.09701493 237.80597015 -209 240 C-208.71604419 242.93421006 -208.50451971 245.15098834 -209 248 C-211.49422251 250.93437942 -212.95549722 251.89628014 -216.79296875 252.27734375 C-228.04334733 251.30441211 -239.63658682 241.13940999 -246.765625 232.88671875 C-251.79723274 226.77133825 -255.75432464 220.65679738 -258 213 C-258.28359375 212.10152344 -258.5671875 211.20304688 -258.859375 210.27734375 C-262.78626984 196.51468873 -262.72695956 183.78507218 -259 170 C-258.74347656 169.04609375 -258.48695313 168.0921875 -258.22265625 167.109375 C-255.65910141 159.02886114 -251.09334605 151.73540936 -246 145 C-245.34 145 -244.68 145 -244 145 C-243.79117188 144.44054687 -243.58234375 143.88109375 -243.3671875 143.3046875 C-241.51874143 140.18873555 -238.97391472 138.27282106 -236.125 136.125 C-235.54782227 135.68736328 -234.97064453 135.24972656 -234.37597656 134.79882812 C-226.26879428 128.81021666 -217.9815639 124.66359398 -208 123 C-207.92523438 121.87464844 -207.85046875 120.74929687 -207.7734375 119.58984375 C-206.18297576 99.73191719 -198.93382216 82.64186526 -183.57275391 69.26367188 C-169.85094472 58.23851131 -152.39073265 53.68200156 -135 55 C-129.57852817 55.97514526 -124.28482238 57.46259713 -119 59 C-118.9071875 58.31164063 -118.814375 57.62328125 -118.71875 56.9140625 C-116.14975756 46.49847359 -107.997395 36.8033107 -101 29 C-100.44957031 28.37867187 -99.89914063 27.75734375 -99.33203125 27.1171875 C-74.26192739 0.49954637 -35.15610371 -10.13322989 0 0 Z " fill="#0D0D0D" transform="translate(266,4)"/>
<path d="M0 0 C2.27047069 1.17447805 4.43847738 2.37564686 6.625 3.6875 C7.87318745 4.41884066 9.12189125 5.14930075 10.37109375 5.87890625 C10.98581543 6.24000488 11.60053711 6.60110352 12.23388672 6.97314453 C14.6937066 8.40333563 17.1865032 9.76834418 19.6875 11.125 C20.57050781 11.60453125 21.45351562 12.0840625 22.36328125 12.578125 C24.12916904 13.53039634 25.89743013 14.47827901 27.66796875 15.421875 C33.93872687 18.78799624 40.01023042 22.41223776 46.04296875 26.18359375 C48.35468576 27.60360486 50.66678513 28.92038742 53.0625 30.1875 C56.31545712 32.19464375 57.90373604 33.81198413 60 37 C60.5146637 40.18713379 60.5146637 40.18713379 60.53344727 43.82226562 C60.54637062 44.82080818 60.54637062 44.82080818 60.55955505 45.83952332 C60.58216378 48.02883347 60.57548724 50.21685837 60.56640625 52.40625 C60.57164385 53.93412657 60.57792083 55.46199991 60.58518982 56.98986816 C60.59558427 60.18757372 60.59104626 63.384834 60.57641602 66.58251953 C60.55922123 70.67518467 60.58273501 74.76644676 60.61790562 78.85895538 C60.63989186 82.01264706 60.63843549 85.16600353 60.6301403 88.31974792 C60.62932159 89.82840006 60.63616986 91.33707701 60.65091133 92.84565735 C60.6683842 94.9572211 60.65379884 97.06627063 60.63110352 99.17773438 C60.63014175 100.37732788 60.62917999 101.57692139 60.62818909 102.81286621 C59.82195271 106.9033276 58.15294251 108.36838181 55 111 C53.13476562 112.23852539 53.13476562 112.23852539 51.40625 113.09765625 C50.76816406 113.42443359 50.13007813 113.75121094 49.47265625 114.08789062 C48.82167969 114.40951172 48.17070312 114.73113281 47.5 115.0625 C42.89108777 117.36695611 39.02876006 119.74952313 35 123 C32.02132498 124.58440161 28.99117206 126.00414373 25.9375 127.4375 C22.98146134 128.88772192 22.98146134 128.88772192 20.640625 130.92578125 C17.24794048 133.59074498 13.62689568 135.32923975 9.75 137.1875 C5.06446324 139.15732404 5.06446324 139.15732404 1 142 C-4.58784014 142.49077642 -8.37315622 141.27105155 -13.1875 138.625 C-14.09145508 138.14933594 -14.09145508 138.14933594 -15.01367188 137.6640625 C-16.6808675 136.78562792 -18.34072275 135.89330151 -20 135 C-21.33032073 134.32734185 -22.66205111 133.65735454 -24 133 C-24 132.34 -24 131.68 -24 131 C-24.70125 130.73445312 -25.4025 130.46890625 -26.125 130.1953125 C-36.28251143 125.97221672 -45.74037655 119.8783674 -55 114 C-55.90621094 113.42765625 -56.81242188 112.8553125 -57.74609375 112.265625 C-63.73863636 108.39204545 -63.73863636 108.39204545 -66 105 C-66.25396729 102.12257385 -66.25396729 102.12257385 -66.25878906 98.57250977 C-66.2622937 97.92500763 -66.26579834 97.27750549 -66.26940918 96.61038208 C-66.27820927 94.4706143 -66.27238293 92.33117739 -66.265625 90.19140625 C-66.26697231 88.70311927 -66.2689134 87.21483272 -66.27142334 85.72654724 C-66.2743724 82.60696219 -66.27008464 79.48749166 -66.26074219 76.36791992 C-66.24935761 72.3719319 -66.25590207 68.37621283 -66.26788712 64.38023472 C-66.27512009 61.30643189 -66.27281102 58.23269263 -66.26763153 55.15888786 C-66.2662985 53.68570868 -66.26793063 52.21252369 -66.27259064 50.73935127 C-66.27767847 48.67837405 -66.26991393 46.61782981 -66.25878906 44.55688477 C-66.25719788 43.38456802 -66.25560669 42.21225128 -66.25396729 41.00440979 C-66.00676828 38.08006814 -65.58662116 36.43543002 -64 34 C-62.32348633 32.70727539 -62.32348633 32.70727539 -60.33203125 31.59765625 C-59.60306641 31.18193359 -58.87410156 30.76621094 -58.12304688 30.33789062 C-57.36056641 29.91701172 -56.59808594 29.49613281 -55.8125 29.0625 C-49.42556509 25.48333843 -49.42556509 25.48333843 -43.36328125 21.390625 C-40.20175466 19.07102423 -36.92775095 17.36403236 -33.375 15.6875 C-25.4117552 11.83777621 -17.89052413 7.34739759 -10.5859375 2.34765625 C-9.89757812 1.88230469 -9.20921875 1.41695312 -8.5 0.9375 C-7.9328125 0.53402344 -7.365625 0.13054687 -6.78125 -0.28515625 C-4.13832452 -1.34580398 -2.704619 -0.85450282 0 0 Z M-8 20 C-8 20.66 -8 21.32 -8 22 C-9.3921875 22.2784375 -9.3921875 22.2784375 -10.8125 22.5625 C-16.40863839 24.14001226 -21.41902401 27.48764228 -26 31 C-26 31.66 -26 32.32 -26 33 C-26.86496094 33.08378906 -27.72992188 33.16757813 -28.62109375 33.25390625 C-32.53847185 34.11889957 -34.80869426 35.61575217 -38.0625 37.9375 C-41.79253064 40.58260539 -44.68842522 42.27537009 -49 44 C-49 61.82 -49 79.64 -49 98 C-42.07 101.96 -42.07 101.96 -35 106 C-31.54554091 108.13034786 -28.1191301 110.288401 -24.70703125 112.484375 C-17.33662021 117.66349284 -17.33662021 117.66349284 -9 120 C-9 120.66 -9 121.32 -9 122 C-6.83859805 123.8808206 -6.83859805 123.8808206 -4 125 C0.36085068 123.96716694 4.12807655 121.21692538 8 119 C9.24862806 118.28633609 10.49732547 117.57279351 11.74609375 116.859375 C12.35517578 116.51132812 12.96425781 116.16328125 13.59179688 115.8046875 C16.39453125 114.203125 19.19726562 112.6015625 22 111 C22 110.34 22 109.68 22 109 C22.58048096 108.87471924 23.16096191 108.74943848 23.7590332 108.62036133 C27.53160284 107.57601015 30.78084155 105.58008803 34.1875 103.6875 C34.92419922 103.29626953 35.66089844 102.90503906 36.41992188 102.50195312 C37.12052734 102.11330078 37.82113281 101.72464844 38.54296875 101.32421875 C39.18258545 100.97447998 39.82220215 100.62474121 40.48120117 100.2644043 C42.47549758 98.60414693 42.53393595 97.53510755 43 95 C43.08508333 93.28978288 43.11776382 91.57658482 43.11352539 89.86425781 C43.11344986 88.84350159 43.11337433 87.82274536 43.11329651 86.77105713 C43.10813522 85.67613953 43.10297394 84.58122192 43.09765625 83.453125 C43.0962413 82.3267865 43.09482635 81.200448 43.09336853 80.03997803 C43.08777199 76.44329165 43.0752201 72.84666756 43.0625 69.25 C43.05748455 66.81119882 43.05292172 64.37239666 43.04882812 61.93359375 C43.0378037 55.95570792 43.02106898 49.97785841 43 44 C42.25379395 43.596604 41.50758789 43.19320801 40.73876953 42.77758789 C39.2631958 41.97695923 39.2631958 41.97695923 37.7578125 41.16015625 C36.29819092 40.36943726 36.29819092 40.36943726 34.80908203 39.56274414 C31.78675356 37.88136707 28.87413684 36.07572415 25.9609375 34.21484375 C23.84315514 32.90283117 21.68482387 31.69680625 19.5 30.5 C16.60676991 28.91466844 13.78509064 27.26831152 11 25.5 C1.95103424 18.81322528 1.95103424 18.81322528 -8 20 Z " fill="#0D0C0D" transform="translate(220,181)"/>
<path d="M0 0 C-0.556875 0.2475 -1.11375 0.495 -1.6875 0.75 C-2.450625 1.1625 -3.21375 1.575 -4 2 C-4.85722656 2.43441406 -5.71445312 2.86882812 -6.59765625 3.31640625 C-10.48733934 7.66146687 -9.74343938 12.55520904 -9.75 18.1875 C-9.78299644 20.38937752 -9.81927009 22.59120923 -9.859375 24.79296875 C-9.86420898 25.7677417 -9.86904297 26.74251465 -9.87402344 27.74682617 C-10 30 -10 30 -11 31 C-13.6662603 31.08855161 -16.30647114 31.11524673 -18.97265625 31.09765625 C-19.77029892 31.0962413 -20.56794159 31.09482635 -21.38975525 31.09336853 C-23.94737435 31.08775316 -26.50490718 31.07519812 -29.0625 31.0625 C-30.79231645 31.05748698 -32.52213426 31.05292373 -34.25195312 31.04882812 C-38.50133553 31.03777875 -42.75065312 31.02050386 -47 31 C-47 30.67 -47 30.34 -47 30 C-35.45 30 -23.9 30 -12 30 C-11.86919373 21.62380127 -11.86919373 21.62380127 -11.79223633 13.24707031 C-11.76411865 12.20131836 -11.73600098 11.15556641 -11.70703125 10.078125 C-11.68346558 8.47565918 -11.68346558 8.47565918 -11.65942383 6.84082031 C-11 4 -11 4 -8.6628418 1.63574219 C-5.51596647 -0.29733425 -3.6288819 -0.33757041 0 0 Z " fill="#444444" transform="translate(272,113)"/>
<path d="M0 0 C0.66 0 1.32 0 2 0 C1.99476318 0.9787207 1.98952637 1.95744141 1.98413086 2.96582031 C1.96600439 6.60366905 1.95454003 10.24151381 1.94506836 13.87939453 C1.94004563 15.45264355 1.93322625 17.02588792 1.92456055 18.59912109 C1.91240471 20.86296743 1.90675104 23.12675193 1.90234375 25.390625 C1.89718246 26.09181458 1.89202118 26.79300415 1.88670349 27.51544189 C1.88632498 30.82485751 1.97485273 33.83587763 3 37 C2.01 36.67 1.02 36.34 0 36 C0 24.12 0 12.24 0 0 Z " fill="#313135" transform="translate(123,302)"/>
<path d="M0 0 C0.66 0 1.32 0 2 0 C0.125 3.875 0.125 3.875 -1 5 C-1.15764405 6.77869726 -1.25100677 8.56318476 -1.31640625 10.34765625 C-1.35830078 11.42724609 -1.40019531 12.50683594 -1.44335938 13.61914062 C-1.48267578 14.75544922 -1.52199219 15.89175781 -1.5625 17.0625 C-1.60568359 18.20267578 -1.64886719 19.34285156 -1.69335938 20.51757812 C-1.79982839 23.34492195 -1.90184207 26.17235738 -2 29 C-2.33 29 -2.66 29 -3 29 C-3.0871142 24.91680116 -3.14043048 20.83384136 -3.1875 16.75 C-3.21263672 15.59113281 -3.23777344 14.43226563 -3.26367188 13.23828125 C-3.27333984 12.12324219 -3.28300781 11.00820312 -3.29296875 9.859375 C-3.3086792 8.83295898 -3.32438965 7.80654297 -3.34057617 6.74902344 C-2.95205117 3.61297217 -2.20032917 2.23744154 0 0 Z " fill="#414141" transform="translate(212,114)"/>
<path d="M0 0 C0.66 0.33 1.32 0.66 2 1 C0.89718873 2.27200971 -0.20730769 3.54255853 -1.3125 4.8125 C-1.92738281 5.52019531 -2.54226562 6.22789063 -3.17578125 6.95703125 C-4.73334335 8.70136739 -6.32658875 10.36778041 -8 12 C-8.99 11.67 -9.98 11.34 -11 11 C-7.37 7.37 -3.74 3.74 0 0 Z " fill="#6D6D6D" transform="translate(84,72)"/>
<path d="M0 0 C2.59055206 0.92994176 4.35062083 2.09728811 6.4375 3.875 C5.4475 3.875 4.4575 3.875 3.4375 3.875 C1.43440671 4.18921071 -0.56621336 4.5201046 -2.5625 4.875 C-2.5625 4.215 -2.5625 3.555 -2.5625 2.875 C-3.5525 3.535 -4.5425 4.195 -5.5625 4.875 C-6.2225 4.215 -6.8825 3.555 -7.5625 2.875 C-3.31135845 -0.16152968 -3.31135845 -0.16152968 0 0 Z " fill="#28282A" transform="translate(217.5625,180.125)"/>
<path d="M0 0 C0.33 0.99 0.66 1.98 1 3 C-1.64 5.97 -4.28 8.94 -7 12 C-7.66 11.67 -8.32 11.34 -9 11 C-8.21654285 9.82780457 -7.42297164 8.66236332 -6.625 7.5 C-6.18414063 6.8503125 -5.74328125 6.200625 -5.2890625 5.53125 C-4.86367188 5.0259375 -4.43828125 4.520625 -4 4 C-3.34 4 -2.68 4 -2 4 C-1.34 2.68 -0.68 1.36 0 0 Z " fill="#414141" transform="translate(24,145)"/>
<path d="M0 0 C0.66 0.33 1.32 0.66 2 1 C0.7934375 2.0828125 0.7934375 2.0828125 -0.4375 3.1875 C-3.02292072 6.02515689 -3.68042813 7.27166147 -4 11 C-4.66 11 -5.32 11 -6 11 C-5.25 4.375 -5.25 4.375 -3 1 C-2.01 0.67 -1.02 0.34 0 0 Z " fill="#4C4C4C" transform="translate(162,113)"/>
<path d="M0 0 C0.66 0.33 1.32 0.66 2 1 C-0.97 3.97 -3.94 6.94 -7 10 C-7.66 9.67 -8.32 9.34 -9 9 C-8.06725891 7.87105124 -7.12859878 6.74699124 -6.1875 5.625 C-5.66542969 4.99851562 -5.14335937 4.37203125 -4.60546875 3.7265625 C-3 2 -3 2 0 0 Z " fill="#262627" transform="translate(203,423)"/>
<path d="M0 0 C0 0.66 0 1.32 0 2 C-1.423125 2.37125 -1.423125 2.37125 -2.875 2.75 C-6.08838835 3.661178 -6.08838835 3.661178 -7.1875 6.0625 C-7.455625 6.701875 -7.72375 7.34125 -8 8 C-8.99 8.33 -9.98 8.66 -11 9 C-10.63165987 6.34795104 -10.3132309 5.26159944 -8.22265625 3.515625 C-7.50980469 3.09796875 -6.79695312 2.6803125 -6.0625 2.25 C-5.35222656 1.82203125 -4.64195312 1.3940625 -3.91015625 0.953125 C-2 0 -2 0 0 0 Z " fill="#54545B" transform="translate(166,210)"/>
<path d="M0 0 C0.33 0 0.66 0 1 0 C1.06058594 0.81984375 1.12117188 1.6396875 1.18359375 2.484375 C1.26738281 3.56203125 1.35117188 4.6396875 1.4375 5.75 C1.51871094 6.81734375 1.59992188 7.8846875 1.68359375 8.984375 C1.94090773 11.43679962 2.31812218 13.63921291 3 16 C2.01 15.67 1.02 15.34 0 15 C0 10.05 0 5.1 0 0 Z " fill="#414142" transform="translate(123,323)"/>
<path d="M0 0 C-0.7734375 0.3403125 -0.7734375 0.3403125 -1.5625 0.6875 C-4.92403127 2.4975553 -7.92911144 4.73996404 -11 7 C-10.45624909 4.39430258 -10.20136577 3.20882376 -8.3125 1.25 C-5.39572708 -0.32663401 -3.26709987 -0.22275681 0 0 Z " fill="#8F8F8F" transform="translate(272,113)"/>
<path d="M0 0 C0.66 0.99 1.32 1.98 2 3 C0.02 5.31 -1.96 7.62 -4 10 C-4 5.75354935 -2.18249194 3.61475228 0 0 Z " fill="#474747" transform="translate(155,46)"/>
<path d="M0 0 C2.31 0.33 4.62 0.66 7 1 C5.8125 2.5625 5.8125 2.5625 4 4 C1.3125 3.6875 1.3125 3.6875 -1 3 C-0.67 2.01 -0.34 1.02 0 0 Z " fill="#404040" transform="translate(262,4)"/>
</svg>
